<mxfile host="app.diagrams.net" agent="Mozilla/5.0 (Windows NT 10.0; Win64; x64) AppleWebKit/537.36 (KHTML, like Gecko) Chrome/132.0.0.0 Safari/537.36" version="26.0.10">
  <diagram name="Page-1" id="vQdiWx4bzIn_EOASzztU">
    <mxGraphModel dx="836" dy="525" grid="0" gridSize="10" guides="1" tooltips="1" connect="1" arrows="1" fold="1" page="1" pageScale="1" pageWidth="850" pageHeight="1100" background="none" math="0" shadow="1">
      <root>
        <mxCell id="0" />
        <mxCell id="1" parent="0" />
        <mxCell id="jDwsObu8A2M6rF0goUSd-2" value="" style="rounded=0;whiteSpace=wrap;html=1;fillColor=#fff2cc;strokeColor=#d6b656;" vertex="1" parent="1">
          <mxGeometry x="190" y="20" width="400" height="470" as="geometry" />
        </mxCell>
        <mxCell id="jDwsObu8A2M6rF0goUSd-3" style="edgeStyle=entityRelationEdgeStyle;rounded=0;orthogonalLoop=1;jettySize=auto;html=1;exitX=1;exitY=0;exitDx=0;exitDy=0;" edge="1" parent="1" source="jDwsObu8A2M6rF0goUSd-29">
          <mxGeometry relative="1" as="geometry">
            <mxPoint x="650" y="190" as="targetPoint" />
          </mxGeometry>
        </mxCell>
        <mxCell id="jDwsObu8A2M6rF0goUSd-4" value="" style="shape=umlActor;" vertex="1" parent="1">
          <mxGeometry x="50" y="150" width="50" height="80" as="geometry" />
        </mxCell>
        <mxCell id="jDwsObu8A2M6rF0goUSd-5" value="" style="shape=umlActor;" vertex="1" parent="1">
          <mxGeometry x="650" y="150" width="50" height="80" as="geometry" />
        </mxCell>
        <mxCell id="jDwsObu8A2M6rF0goUSd-6" value="" style="shape=umlActor;" vertex="1" parent="1">
          <mxGeometry x="50" y="400" width="50" height="80" as="geometry" />
        </mxCell>
        <mxCell id="jDwsObu8A2M6rF0goUSd-7" style="edgeStyle=entityRelationEdgeStyle;rounded=0;orthogonalLoop=1;jettySize=auto;html=1;exitX=0;exitY=0.5;exitDx=0;exitDy=0;" edge="1" parent="1" source="jDwsObu8A2M6rF0goUSd-9" target="jDwsObu8A2M6rF0goUSd-4">
          <mxGeometry relative="1" as="geometry" />
        </mxCell>
        <mxCell id="jDwsObu8A2M6rF0goUSd-8" style="edgeStyle=entityRelationEdgeStyle;rounded=0;orthogonalLoop=1;jettySize=auto;html=1;" edge="1" parent="1" source="jDwsObu8A2M6rF0goUSd-9" target="jDwsObu8A2M6rF0goUSd-5">
          <mxGeometry relative="1" as="geometry" />
        </mxCell>
        <mxCell id="jDwsObu8A2M6rF0goUSd-9" value="Login" style="ellipse;whiteSpace=wrap;fillColor=#f5f5f5;fontColor=#333333;strokeColor=#666666;" vertex="1" parent="1">
          <mxGeometry x="250" y="50" width="120" height="50" as="geometry" />
        </mxCell>
        <mxCell id="jDwsObu8A2M6rF0goUSd-10" style="edgeStyle=entityRelationEdgeStyle;rounded=0;orthogonalLoop=1;jettySize=auto;html=1;" edge="1" parent="1" source="jDwsObu8A2M6rF0goUSd-13" target="jDwsObu8A2M6rF0goUSd-4">
          <mxGeometry relative="1" as="geometry" />
        </mxCell>
        <mxCell id="jDwsObu8A2M6rF0goUSd-11" style="edgeStyle=entityRelationEdgeStyle;rounded=0;orthogonalLoop=1;jettySize=auto;html=1;" edge="1" parent="1" source="jDwsObu8A2M6rF0goUSd-13" target="jDwsObu8A2M6rF0goUSd-5">
          <mxGeometry relative="1" as="geometry" />
        </mxCell>
        <mxCell id="jDwsObu8A2M6rF0goUSd-12" style="edgeStyle=entityRelationEdgeStyle;rounded=0;orthogonalLoop=1;jettySize=auto;html=1;exitX=0;exitY=1;exitDx=0;exitDy=0;" edge="1" parent="1" source="jDwsObu8A2M6rF0goUSd-13" target="jDwsObu8A2M6rF0goUSd-6">
          <mxGeometry relative="1" as="geometry" />
        </mxCell>
        <mxCell id="jDwsObu8A2M6rF0goUSd-13" value="Ticket Availability" style="ellipse;whiteSpace=wrap;fillColor=#f5f5f5;fontColor=#333333;strokeColor=#666666;" vertex="1" parent="1">
          <mxGeometry x="250" y="120" width="120" height="50" as="geometry" />
        </mxCell>
        <mxCell id="jDwsObu8A2M6rF0goUSd-14" style="edgeStyle=entityRelationEdgeStyle;rounded=0;orthogonalLoop=1;jettySize=auto;html=1;" edge="1" parent="1" source="jDwsObu8A2M6rF0goUSd-15" target="jDwsObu8A2M6rF0goUSd-4">
          <mxGeometry relative="1" as="geometry" />
        </mxCell>
        <mxCell id="jDwsObu8A2M6rF0goUSd-15" value="Fill Reservation form" style="ellipse;whiteSpace=wrap;fillColor=#f5f5f5;fontColor=#333333;strokeColor=#666666;" vertex="1" parent="1">
          <mxGeometry x="250" y="190" width="120" height="50" as="geometry" />
        </mxCell>
        <mxCell id="jDwsObu8A2M6rF0goUSd-16" style="edgeStyle=entityRelationEdgeStyle;rounded=0;orthogonalLoop=1;jettySize=auto;html=1;" edge="1" parent="1" source="jDwsObu8A2M6rF0goUSd-18" target="jDwsObu8A2M6rF0goUSd-4">
          <mxGeometry relative="1" as="geometry" />
        </mxCell>
        <mxCell id="jDwsObu8A2M6rF0goUSd-17" style="edgeStyle=entityRelationEdgeStyle;rounded=0;orthogonalLoop=1;jettySize=auto;html=1;" edge="1" parent="1">
          <mxGeometry relative="1" as="geometry">
            <mxPoint x="370" y="281" as="sourcePoint" />
            <mxPoint x="650" y="186" as="targetPoint" />
          </mxGeometry>
        </mxCell>
        <mxCell id="jDwsObu8A2M6rF0goUSd-18" value="Book Ticket" style="ellipse;whiteSpace=wrap;fillColor=#f5f5f5;fontColor=#333333;strokeColor=#666666;" vertex="1" parent="1">
          <mxGeometry x="250" y="260" width="120" height="50" as="geometry" />
        </mxCell>
        <mxCell id="jDwsObu8A2M6rF0goUSd-19" style="edgeStyle=entityRelationEdgeStyle;rounded=0;orthogonalLoop=1;jettySize=auto;html=1;exitX=1;exitY=0.5;exitDx=0;exitDy=0;" edge="1" parent="1" source="jDwsObu8A2M6rF0goUSd-27" target="jDwsObu8A2M6rF0goUSd-5">
          <mxGeometry relative="1" as="geometry" />
        </mxCell>
        <mxCell id="jDwsObu8A2M6rF0goUSd-20" style="edgeStyle=entityRelationEdgeStyle;rounded=0;orthogonalLoop=1;jettySize=auto;html=1;" edge="1" parent="1" source="jDwsObu8A2M6rF0goUSd-21" target="jDwsObu8A2M6rF0goUSd-5">
          <mxGeometry relative="1" as="geometry" />
        </mxCell>
        <mxCell id="jDwsObu8A2M6rF0goUSd-21" value="Refund Money" style="ellipse;whiteSpace=wrap;fillColor=#f5f5f5;fontColor=#333333;strokeColor=#666666;" vertex="1" parent="1">
          <mxGeometry x="400" y="330" width="120" height="50" as="geometry" />
        </mxCell>
        <mxCell id="jDwsObu8A2M6rF0goUSd-22" style="edgeStyle=entityRelationEdgeStyle;rounded=0;orthogonalLoop=1;jettySize=auto;html=1;" edge="1" parent="1" source="jDwsObu8A2M6rF0goUSd-23">
          <mxGeometry relative="1" as="geometry">
            <mxPoint x="650" y="190" as="targetPoint" />
          </mxGeometry>
        </mxCell>
        <mxCell id="jDwsObu8A2M6rF0goUSd-23" value="Print Ticket" style="ellipse;whiteSpace=wrap;fillColor=#f5f5f5;fontColor=#333333;strokeColor=#666666;" vertex="1" parent="1">
          <mxGeometry x="400" y="400" width="120" height="50" as="geometry" />
        </mxCell>
        <mxCell id="jDwsObu8A2M6rF0goUSd-24" style="edgeStyle=entityRelationEdgeStyle;rounded=0;orthogonalLoop=1;jettySize=auto;html=1;entryX=0.5;entryY=0.5;entryDx=0;entryDy=0;entryPerimeter=0;" edge="1" parent="1" source="jDwsObu8A2M6rF0goUSd-23" target="jDwsObu8A2M6rF0goUSd-6">
          <mxGeometry relative="1" as="geometry">
            <Array as="points">
              <mxPoint x="240" y="470" />
            </Array>
          </mxGeometry>
        </mxCell>
        <mxCell id="jDwsObu8A2M6rF0goUSd-25" style="edgeStyle=entityRelationEdgeStyle;rounded=0;orthogonalLoop=1;jettySize=auto;html=1;exitX=0;exitY=1;exitDx=0;exitDy=0;entryX=0.5;entryY=0.5;entryDx=0;entryDy=0;entryPerimeter=0;" edge="1" parent="1" source="jDwsObu8A2M6rF0goUSd-9" target="jDwsObu8A2M6rF0goUSd-6">
          <mxGeometry relative="1" as="geometry" />
        </mxCell>
        <mxCell id="jDwsObu8A2M6rF0goUSd-26" style="edgeStyle=entityRelationEdgeStyle;rounded=0;orthogonalLoop=1;jettySize=auto;html=1;exitX=1;exitY=0;exitDx=0;exitDy=0;" edge="1" parent="1" source="jDwsObu8A2M6rF0goUSd-29" target="jDwsObu8A2M6rF0goUSd-5">
          <mxGeometry relative="1" as="geometry" />
        </mxCell>
        <mxCell id="jDwsObu8A2M6rF0goUSd-27" value="Pay Fare Amount" style="ellipse;whiteSpace=wrap;fillColor=#f5f5f5;fontColor=#333333;strokeColor=#666666;" vertex="1" parent="1">
          <mxGeometry x="410" y="250" width="120" height="50" as="geometry" />
        </mxCell>
        <mxCell id="jDwsObu8A2M6rF0goUSd-28" style="edgeStyle=entityRelationEdgeStyle;rounded=0;orthogonalLoop=1;jettySize=auto;html=1;exitX=0;exitY=1;exitDx=0;exitDy=0;" edge="1" parent="1" source="jDwsObu8A2M6rF0goUSd-29" target="jDwsObu8A2M6rF0goUSd-6">
          <mxGeometry relative="1" as="geometry" />
        </mxCell>
        <mxCell id="jDwsObu8A2M6rF0goUSd-29" value="Cancel Reservation" style="ellipse;whiteSpace=wrap;fillColor=#f5f5f5;fontColor=#333333;strokeColor=#666666;" vertex="1" parent="1">
          <mxGeometry x="250" y="330" width="120" height="50" as="geometry" />
        </mxCell>
        <mxCell id="jDwsObu8A2M6rF0goUSd-30" style="edgeStyle=entityRelationEdgeStyle;rounded=0;orthogonalLoop=1;jettySize=auto;html=1;" edge="1" parent="1" source="jDwsObu8A2M6rF0goUSd-29" target="jDwsObu8A2M6rF0goUSd-4">
          <mxGeometry relative="1" as="geometry" />
        </mxCell>
        <mxCell id="jDwsObu8A2M6rF0goUSd-31" value="&lt;div&gt;IRCTC&lt;/div&gt;" style="text;html=1;align=center;verticalAlign=middle;resizable=0;points=[];autosize=1;strokeColor=none;fillColor=none;" vertex="1" parent="1">
          <mxGeometry x="650" y="235" width="55" height="26" as="geometry" />
        </mxCell>
        <mxCell id="jDwsObu8A2M6rF0goUSd-32" style="edgeStyle=entityRelationEdgeStyle;rounded=0;orthogonalLoop=1;jettySize=auto;html=1;exitX=0;exitY=1;exitDx=0;exitDy=0;entryX=0.5;entryY=0.5;entryDx=0;entryDy=0;entryPerimeter=0;" edge="1" parent="1" source="jDwsObu8A2M6rF0goUSd-21" target="jDwsObu8A2M6rF0goUSd-6">
          <mxGeometry relative="1" as="geometry" />
        </mxCell>
        <mxCell id="jDwsObu8A2M6rF0goUSd-33" value="&lt;b&gt;&lt;i&gt;&lt;font style=&quot;font-size: 14px;&quot;&gt;Mani Kiran, 2212056&lt;/font&gt;&lt;/i&gt;&lt;/b&gt;" style="text;html=1;align=center;verticalAlign=middle;whiteSpace=wrap;rounded=0;fillColor=#dae8fc;strokeColor=#6c8ebf;" vertex="1" parent="1">
          <mxGeometry x="430" y="30" width="140" height="30" as="geometry" />
        </mxCell>
        <mxCell id="jDwsObu8A2M6rF0goUSd-34" value="Ticket Counter Employee" style="text;html=1;align=center;verticalAlign=middle;whiteSpace=wrap;rounded=0;" vertex="1" parent="1">
          <mxGeometry x="8" y="478" width="141" height="30" as="geometry" />
        </mxCell>
        <mxCell id="jDwsObu8A2M6rF0goUSd-35" value="Passenger" style="text;html=1;align=center;verticalAlign=middle;whiteSpace=wrap;rounded=0;" vertex="1" parent="1">
          <mxGeometry x="45" y="233" width="60" height="30" as="geometry" />
        </mxCell>
      </root>
    </mxGraphModel>
  </diagram>
</mxfile>
